<svg>
  <symbol id="search" width="20" height="20" viewBox="0 0 20 20" fill="none" xmlns="http://www.w3.org/2000/svg">
    <path fill-rule="evenodd" clip-rule="evenodd" d="M14.1993 13.0203C15.2262 11.7366 15.8402 10.1084 15.8402 8.33675C15.8402 4.19272 12.4808 0.833328 8.33675 0.833328C4.19272 0.833328 0.833328 4.19272 0.833328 8.33675C0.833328 12.4808 4.19272 15.8402 8.33675 15.8402C10.1084 15.8402 11.7366 15.2262 13.0203 14.1993L17.7434 18.9225C18.069 19.2481 18.5969 19.2481 18.9225 18.9225C19.2481 18.5969 19.2481 18.069 18.9225 17.7434L14.1993 13.0203ZM8.33675 14.1811C5.109 14.1811 2.49239 11.5645 2.49239 8.33675C2.49239 5.109 5.109 2.49239 8.33675 2.49239C11.5645 2.49239 14.1811 5.109 14.1811 8.33675C14.1811 11.5645 11.5645 14.1811 8.33675 14.1811Z" fill="#222222"/>
  </symbol>

  <symbol id="hearth" width="23" height="21" viewBox="0 0 23 21" xmlns="http://www.w3.org/2000/svg">
    <path fill-rule="evenodd" clip-rule="evenodd" d="M2.98877 4.75371C2.26311 5.94588 2.02428 7.60012 2.47014 9.30924C2.63059 9.92428 3.09703 10.715 3.83627 11.6251C4.56116 12.5175 5.4864 13.4504 6.46636 14.3455C8.40945 16.1204 10.5006 17.6861 11.5 18.4101C12.4994 17.6861 14.5905 16.1204 16.5336 14.3455C17.5136 13.4504 18.4388 12.5175 19.1637 11.6251C19.903 10.715 20.3694 9.92428 20.5299 9.30924C20.9757 7.60012 20.7369 5.94589 20.0112 4.75372C19.3029 3.59008 18.1202 2.83334 16.5 2.83334C15.0904 2.83334 14.0969 3.83219 13.3944 5.17859C13.0569 5.82553 12.8275 6.48214 12.6823 6.98306C12.6102 7.23169 12.5602 7.43751 12.5286 7.57874C12.4167 8.07918 11.8143 8.10417 11.5 8.10417C11.1857 8.10417 10.5823 8.07451 10.4714 7.57874C10.4398 7.43751 10.3898 7.23169 10.3177 6.98306C10.1725 6.48214 9.94309 5.82553 9.60556 5.17859C8.90308 3.83219 7.90956 2.83334 6.49998 2.83334C4.87979 2.83334 3.69706 3.59008 2.98877 4.75371ZM11.5 4.5297C11.5341 4.46044 11.5693 4.39097 11.6056 4.32142C12.4031 2.79282 13.9096 0.916672 16.5 0.916672C18.8798 0.916672 20.6971 2.07659 21.7388 3.78796C22.7631 5.47079 23.0243 7.64989 22.4701 9.7741C22.2076 10.7805 21.5354 11.8256 20.7419 12.8024C19.9341 13.7969 18.9327 14.802 17.9135 15.733C15.8742 17.5957 13.6957 19.223 12.681 19.9572C11.9803 20.4641 11.0197 20.4641 10.319 19.9572C9.30433 19.223 7.12583 17.5957 5.08648 15.733C4.06733 14.802 3.06586 13.7969 2.25806 12.8024C1.46461 11.8256 0.792396 10.7805 0.529855 9.7741C-0.0242857 7.64989 0.236884 5.47079 1.26121 3.78796C2.30291 2.07659 4.12017 0.916672 6.49998 0.916672C9.09038 0.916672 10.5969 2.79282 11.3944 4.32142C11.4307 4.39097 11.4659 4.46044 11.5 4.5297Z"/>
  </symbol>

  <symbol id="humidity" width="31" height="32" viewBox="0 0 31 32" fill="none" xmlns="http://www.w3.org/2000/svg">
    <path d="M15.5 32C19.4974 32 21.7 29.84 21.7 25.9201C21.7 20.7314 16.6826 16.5267 16.4688 16.3507C16.1938 16.1235 15.8522 15.9997 15.5 15.9997C15.1478 15.9997 14.8062 16.1235 14.5312 16.3507C14.3174 16.5267 9.3 20.7314 9.3 25.9201C9.3 29.84 11.5026 32 15.5 32ZM15.5 19.7778C17.22 21.3701 18.3215 23.5527 18.6 25.9201C18.6 27.6993 18.0807 28.8001 15.5 28.8001C12.9193 28.8001 12.4 27.6993 12.4 25.9201C12.6785 23.5527 13.78 21.3701 15.5 19.7778ZM7.16875 0.350994C6.89384 0.123793 6.55217 0 6.2 0C5.84783 0 5.50616 0.123793 5.23125 0.350994C5.01735 0.526991 0 4.73171 0 9.92041C0 13.8403 2.20255 16.0003 6.2 16.0003C10.1974 16.0003 12.4 13.8403 12.4 9.92041C12.4 4.73171 7.38265 0.526991 7.16875 0.350994ZM6.2 12.8004C3.61925 12.8004 3.1 11.6996 3.1 9.92041C3.37849 7.55298 4.48004 5.37039 6.2 3.77813C7.91996 5.37039 9.02151 7.55298 9.3 9.92041C9.3 11.6996 8.78075 12.8004 6.2 12.8004ZM25.7687 0.350994C25.4938 0.123793 25.1522 0 24.8 0C24.4478 0 24.1062 0.123793 23.8312 0.350994C23.6173 0.526991 18.6 4.73171 18.6 9.92041C18.6 13.8403 20.8025 16.0003 24.8 16.0003C28.7974 16.0003 31 13.8403 31 9.92041C31 4.73171 25.9826 0.526991 25.7687 0.350994ZM24.8 12.8004C22.2192 12.8004 21.7 11.6996 21.7 9.92041C21.9785 7.55298 23.08 5.37039 24.8 3.77813C26.52 5.37039 27.6215 7.55298 27.9 9.92041C27.9 11.6996 27.3807 12.8004 24.8 12.8004Z" fill="white"/>
  </symbol>

  <symbol id="sunset" width="45" height="38" viewBox="0 0 45 38" fill="none" xmlns="http://www.w3.org/2000/svg">
    <path d="M22.371 7.06713C23.073 7.06713 23.553 6.59927 23.553 5.88517V1.18196C23.553 0.480171 23.0851 0 22.371 0C21.6569 0 21.1891 0.467859 21.1891 1.18196V5.88517C21.2014 6.59927 21.6693 7.06713 22.371 7.06713Z" fill="white"/>
    <path d="M34.8555 11.5487L38.1551 8.2491C38.6231 7.78124 38.6231 7.06714 38.1551 6.59928C37.6873 6.13142 36.9732 6.13142 36.5054 6.59928L33.2058 9.89891C32.7378 10.3668 32.7378 11.0809 33.2058 11.5487C33.6735 12.0166 34.3876 12.0166 34.8555 11.5487Z" fill="white"/>
    <path d="M9.41873 23.553H35.3232C35.3232 23.0851 35.3232 22.8513 35.3232 22.371C35.3232 15.3039 29.438 9.41873 22.3709 9.41873C15.3038 9.41873 9.41861 15.3039 9.41861 22.371C9.41873 22.8512 9.41873 23.0851 9.41873 23.553Z" fill="white"/>
    <path d="M37.6873 22.3834C37.6873 23.0851 38.1551 23.5654 38.8694 23.5654H43.5724C44.2742 23.5654 44.7545 23.0976 44.7545 22.3834C44.7545 21.6693 44.2867 21.2014 43.5724 21.2014H38.8692C38.3891 21.2014 37.6873 21.9032 37.6873 22.3834Z" fill="white"/>
    <path d="M43.5723 28.2685H29.2042L26.3725 30.6201L22.1371 34.1537L18.3696 30.6201L15.5502 28.2685H1.18196C0.714101 28.2685 0 28.7364 0 29.4505C0 30.1646 0.701789 30.6324 1.18196 30.6324H14.1343L22.371 37.6996L30.6078 30.6324H43.5601C44.2619 30.6324 44.7421 30.1646 44.7421 29.4505C44.7421 28.7364 44.2742 28.2685 43.5723 28.2685Z" fill="white"/>
    <path d="M9.89891 11.5487C10.3668 12.0166 11.0809 12.0166 11.5487 11.5487C12.0166 11.0809 12.0166 10.3668 11.5487 9.89891L8.2491 6.59928C7.78124 6.13142 7.06714 6.13142 6.59928 6.59928C6.13142 7.06714 6.13142 7.78124 6.59928 8.2491L9.89891 11.5487Z" fill="white"/>
    <path d="M1.18196 23.553H5.88517C6.35303 23.553 7.06713 23.0851 7.06713 22.371C7.06713 21.9032 6.59927 21.189 5.88517 21.189H1.18196C0.480171 21.189 0 21.8908 0 22.371C0.0123121 23.0851 0.480171 23.553 1.18196 23.553Z" fill="white"/>
  </symbol>

  <symbol id="wind" width="42" height="32" viewBox="0 0 42 32" fill="none" xmlns="http://www.w3.org/2000/svg">
    <path d="M27.9945 6.22192C27.9945 2.79783 25.1968 0 21.7726 0C18.3486 0 15.5507 2.79783 15.5507 6.22192H18.6576C18.6576 4.51394 20.0565 3.11503 21.7645 3.11503C23.4725 3.11503 24.8715 4.51394 24.8715 6.22192C24.8715 7.9299 23.4725 9.32881 21.7645 9.32881H3.10689V12.4357H21.7726C25.1968 12.452 27.9945 9.64601 27.9945 6.22192Z" fill="white"/>
    <path d="M35.77 6.22192C32.3458 6.22192 29.5481 9.01975 29.5481 12.4438H32.6631C32.6631 10.7359 34.062 9.33695 35.77 9.33695C37.478 9.33695 38.8768 10.7359 38.8768 12.4438C38.8768 14.1518 37.4861 15.5589 35.77 15.5589H0V18.6658H35.7781C39.2022 18.6658 42 15.8679 42 12.4438C42 9.01975 39.194 6.22192 35.77 6.22192Z" fill="white"/>
    <path d="M31.1096 21.7808H9.32881V24.8877H31.1096C32.0449 24.8877 32.663 25.5058 32.663 26.4411C32.663 27.3765 32.0449 27.9947 31.1096 27.9947C30.1743 27.9947 29.5562 27.3765 29.5562 26.4411H26.4492C26.4492 28.93 28.4744 31.1096 31.1177 31.1096C33.761 31.1096 35.7861 29.0844 35.7861 26.4411C35.7861 23.7978 33.7529 21.7808 31.1096 21.7808Z" fill="white"/>
  </symbol>

  <symbol id="sunrise" width="49" height="33" viewBox="0 0 49 33" fill="none" xmlns="http://www.w3.org/2000/svg">
    <path d="M24.1132 7.61331C24.8693 7.61331 25.3867 7.1093 25.3867 6.34001V1.27331C25.3867 0.517281 24.8827 0 24.1132 0C23.344 0 22.8399 0.504018 22.8399 1.27331V6.34001C22.8399 7.1093 23.596 7.61331 24.1132 7.61331Z" fill="white"/>
    <path d="M40.8519 24.1C40.8519 24.8559 41.3559 25.3733 42.1254 25.3733H47.1919C47.948 25.3733 48.4654 24.8693 48.4654 24.1C48.4654 23.3306 47.9614 22.8266 47.1919 22.8266H42.1254C41.3559 22.8399 40.8519 23.596 40.8519 24.1Z" fill="white"/>
    <path d="M37.5494 12.4413L41.1041 8.88663C41.6081 8.38261 41.6081 7.61332 41.1041 7.10931C40.6 6.60529 39.8306 6.60529 39.3267 7.10931L35.7721 10.664C35.2681 11.168 35.2681 11.9373 35.7721 12.4413C36.2894 12.9453 37.2973 12.9453 37.5494 12.4413Z" fill="white"/>
    <path d="M10.4119 25.3733H17.004L24.3653 19.0333L31.7266 25.3733H38.0666C38.0666 24.8693 38.0666 24.6173 38.0666 24.1C38.0666 16.4867 31.7266 10.1467 24.1132 10.1467C16.5001 10.1467 10.1599 16.4867 10.1599 24.1C10.1599 24.6173 10.1599 24.8693 10.4119 25.3733Z" fill="white"/>
    <path d="M46.9399 30.4532H32.9866L24.1132 22.8399L15.2399 30.4532H1.52532C0.769291 30.4532 0.25201 30.9573 0.25201 31.7267C0.25201 32.496 0.756028 33 1.52532 33H17.004L20.0413 30.4666L24.604 26.66L29.1667 30.4666L32.2173 33H47.696C48.4518 33 48.9693 32.496 48.9693 31.7267C48.4652 30.9573 47.6961 30.4532 46.9399 30.4532Z" fill="white"/>
    <path d="M1.27331 25.3733H6.34001C7.09603 25.3733 7.61331 24.8693 7.61331 24.1C7.61331 23.3306 7.1093 22.8266 6.34001 22.8266H1.27331C0.517281 22.8267 0 23.5827 0 24.1C0.0132636 24.8693 0.517281 25.3733 1.27331 25.3733Z" fill="white"/>
    <path d="M10.6639 12.4413C11.168 12.9453 11.9373 12.9453 12.4413 12.4413C12.9453 11.9373 12.9453 11.168 12.4413 10.664L8.88662 7.10931C8.3826 6.60529 7.61332 6.60529 7.1093 7.10931C6.60528 7.61332 6.60528 8.38261 7.1093 8.88663L10.6639 12.4413Z" fill="white"/>
  </symbol>

</svg>